<svg width="18" height="15" viewBox="0 0 18 15" fill="none" xmlns="http://www.w3.org/2000/svg">
<path d="M17 11.087L9 14.5072L1 11.087L2.44928 6.62319L5.92754 4.47826H8.47826H8.53623H9.46377H9.57971H12.0725L15.5507 6.68116L17 11.087Z" fill="#1D1D1D"/>
<path d="M9.46377 4.47826H12.0725L15.5507 6.68116L17 11.087L9 14.5072L1 11.087L2.44928 6.62319L5.92754 4.47826H8.53623M8.47826 4.47826H9.57971" stroke="#F5F5F5" stroke-width="0.5"/>
<path d="M2.21739 1L5.92754 4.36232L2.44928 6.56522L2.21739 1Z" fill="#1D1D1D" stroke="#F5F5F5" stroke-width="0.5"/>
<path d="M15.7826 1.11594L12.0725 4.47826L15.5507 6.73913V6.68116L15.7826 1.11594Z" fill="#1D1D1D" stroke="#F5F5F5" stroke-width="0.5"/>
<path d="M3.85218 3.55683L3.2029 3.08696V4.19756L3.93333 4.71014L4.01449 4.11213" stroke="#F5F5F5" stroke-width="0.2"/>
<path d="M14.3913 6.97102L15.5507 10.6812H9.63768L14.3913 6.97102Z" fill="#F5F5F5"/>
<path d="M3.95652 6.97102L2.7971 10.6812H8.71014L3.95652 6.97102Z" fill="#F5F5F5"/>
<path d="M6.15942 10.0435L6.50725 9.11594L6.73913 10.0435L6.50725 10.7391L6.15942 10.0435Z" fill="#1D1D1D" stroke="#1D1D1D"/>
<path d="M12.1884 10.0435L11.8406 9.11594L11.6087 10.0435L11.8406 10.7391L12.1884 10.0435Z" fill="#1D1D1D" stroke="#1D1D1D"/>
</svg>
