<svg width="186" height="158" viewBox="0 0 186 158" fill="none" xmlns="http://www.w3.org/2000/svg">
<path d="M183 116.478L93 154.957L3 116.478L19.3043 66.2609L58.4348 42.1304H87.1304H87.7826H98.2174H99.5217H127.565L166.696 66.913L183 116.478Z" fill="#1D1D1D"/>
<path d="M98.2174 42.1304H127.565L166.696 66.913L183 116.478L93 154.957L3 116.478L19.3043 66.2609L58.4348 42.1304H87.7826M87.1304 42.1304H99.5217" stroke="#F5F5F5" stroke-width="4"/>
<path d="M16.6957 3L58.4348 40.8261L19.3044 65.6087L16.6957 3Z" fill="#1D1D1D" stroke="#F5F5F5" stroke-width="2"/>
<path d="M169.304 4.30434L127.565 42.1304L166.696 67.5652V66.913L169.304 4.30434Z" fill="#1D1D1D" stroke="#F5F5F5" stroke-width="2"/>
<path d="M35.087 31.7643L27.7826 26.4783V38.9725L36 44.7391L36.9131 38.0114" stroke="#F5F5F5" stroke-width="2"/>
<path d="M153.652 70.1739L166.696 111.913H100.174L153.652 70.1739Z" fill="#F5F5F5"/>
<path d="M36.2608 70.1739L23.2174 111.913H89.7391L36.2608 70.1739Z" fill="#F5F5F5"/>
<path d="M61.0435 104.739L64.9565 94.3043L67.5652 104.739L64.9565 112.565L61.0435 104.739Z" fill="#1D1D1D" stroke="#1D1D1D"/>
<path d="M128.87 104.739L124.957 94.3043L122.348 104.739L124.957 112.565L128.87 104.739Z" fill="#1D1D1D" stroke="#1D1D1D"/>
</svg>
