<svg width="34" height="30" viewBox="0 0 34 30" fill="none" xmlns="http://www.w3.org/2000/svg">
<path d="M33 22.1739L17 29.0145L1 22.1739L3.89855 13.2464L10.8551 8.95652H15.9565H16.0725H17.9275H18.1594H23.1449L30.1014 13.3623L33 22.1739Z" fill="#1D1D1D"/>
<path d="M17.9275 8.95652H23.1449L30.1014 13.3623L33 22.1739L17 29.0145L1 22.1739L3.89855 13.2464L10.8551 8.95652H16.0725M15.9565 8.95652H18.1594" stroke="#F5F5F5"/>
<path d="M3.43478 2L10.8551 8.72464L3.89855 13.1304L3.43478 2Z" fill="#1D1D1D" stroke="#F5F5F5"/>
<path d="M30.5652 2.23188L23.1449 8.95652L30.1014 13.4783V13.3623L30.5652 2.23188Z" fill="#1D1D1D" stroke="#F5F5F5"/>
<path d="M6.70435 7.11365L5.4058 6.17391V8.39512L6.86667 9.42029L7.02899 8.22426" stroke="#F5F5F5" stroke-width="0.5"/>
<path d="M27.7826 13.942L30.1014 21.3623H18.2754L27.7826 13.942Z" fill="#F5F5F5"/>
<path d="M6.91304 13.942L4.5942 21.3623H16.4203L6.91304 13.942Z" fill="#F5F5F5"/>
<path d="M11.3188 20.087L12.0145 18.2319L12.4783 20.087L12.0145 21.4783L11.3188 20.087Z" fill="#1D1D1D" stroke="#1D1D1D"/>
<path d="M23.3768 20.087L22.6812 18.2319L22.2174 20.087L22.6812 21.4783L23.3768 20.087Z" fill="#1D1D1D" stroke="#1D1D1D"/>
</svg>
