<svg width="100" height="86" viewBox="0 0 100 86" fill="none" xmlns="http://www.w3.org/2000/svg">
<path d="M98 63.5217L50 84.0435L2 63.5217L10.6957 36.7391L31.5652 23.8696H46.8696H47.2174H52.7826H53.4783H68.4348L89.3044 37.087L98 63.5217Z" fill="#1D1D1D"/>
<path d="M52.7826 23.8696H68.4348L89.3043 37.087L98 63.5217L50 84.0435L2 63.5217L10.6957 36.7391L31.5652 23.8696H47.2174M46.8696 23.8696H53.4783" stroke="#F5F5F5" stroke-width="2"/>
<path d="M9.30435 3L31.5652 23.1739L10.6957 36.3913L9.30435 3Z" fill="#1D1D1D" stroke="#F5F5F5" stroke-width="2"/>
<path d="M90.6956 3.69565L68.4348 23.8696L89.3043 37.4348V37.087L90.6956 3.69565Z" fill="#1D1D1D" stroke="#F5F5F5" stroke-width="2"/>
<path d="M19.1131 18.341L15.2174 15.5217V22.1854L19.6 25.2609L20.087 21.6728" stroke="#F5F5F5"/>
<path d="M82.3478 38.8261L89.3043 61.087H53.8261L82.3478 38.8261Z" fill="#F5F5F5"/>
<path d="M19.7391 38.8261L12.7826 61.087H48.2609L19.7391 38.8261Z" fill="#F5F5F5"/>
<path d="M32.9565 57.2609L35.0435 51.6956L36.4348 57.2609L35.0435 61.4348L32.9565 57.2609Z" fill="#1D1D1D" stroke="#1D1D1D"/>
<path d="M69.1304 57.2609L67.0435 51.6956L65.6522 57.2609L67.0435 61.4348L69.1304 57.2609Z" fill="#1D1D1D" stroke="#1D1D1D"/>
</svg>
