<svg xmlns="http://www.w3.org/2000/svg" xmlns:xlink="http://www.w3.org/1999/xlink" viewBox="0 0 311.81 255.12"><defs><style>.cls-1{fill:#fff;}.cls-2{fill:url(#unnamed_14);}.cls-3{fill:url(#unnamed_14-2);}.cls-4{fill:url(#unnamed_14-3);}.cls-5{fill:url(#unnamed_14-4);}.cls-6{fill:#536e86;}</style><linearGradient id="unnamed_14" x1="104.97" y1="135.4" x2="231.47" y2="13.01" gradientUnits="userSpaceOnUse"><stop offset="0" stop-color="#25bcef"/><stop offset="0" stop-color="#53a3db"/><stop offset="0.92" stop-color="#4455a4"/></linearGradient><linearGradient id="unnamed_14-2" x1="106.88" y1="136.3" x2="233.38" y2="13.91" xlink:href="#unnamed_14"/><linearGradient id="unnamed_14-3" x1="108.62" y1="140.4" x2="235.12" y2="18.01" xlink:href="#unnamed_14"/><linearGradient id="unnamed_14-4" x1="122.05" y1="154.28" x2="248.55" y2="31.89" xlink:href="#unnamed_14"/></defs><g id="layout_2" data-name="layout 2"><g id="Layer_1" data-name="Layer 1"><rect class="cls-1" width="311.81" height="255.12"/><path class="cls-2" d="M151.65,152.11a20.44,20.44,0,0,1-10.22-2.73l-35.89-20.72a20.52,20.52,0,0,1-10.22-17.72V69.51A20.52,20.52,0,0,1,105.54,51.8l35.89-20.72a20.51,20.51,0,0,1,20.45,0h0l35.89,20.71A20.55,20.55,0,0,1,208,69.51v41.43a20.52,20.52,0,0,1-10.22,17.72l-35.89,20.72A20.45,20.45,0,0,1,151.65,152.11Zm0-111.06a7.78,7.78,0,0,0-3.87,1L111.9,62.8A7.76,7.76,0,0,0,108,69.51v41.43a7.78,7.78,0,0,0,3.87,6.72l35.88,20.71a7.77,7.77,0,0,0,7.75,0l35.88-20.72a7.75,7.75,0,0,0,3.87-6.71V69.51a7.76,7.76,0,0,0-3.87-6.71L155.53,42.09A7.79,7.79,0,0,0,151.65,41.05Z"/><rect class="cls-3" x="145.78" y="34.71" width="12.71" height="115.6"/><polygon class="cls-4" points="201.04 83.75 152.23 79.53 152.23 65.43 202.07 76.53 201.04 83.75"/><polygon class="cls-5" points="154.16 117.11 150.69 103.92 198.44 95.31 198.53 102.93 154.16 117.11"/><path class="cls-6" d="M39.64,184.74a23.21,23.21,0,0,1,8.61,1.87l2.32-14.48h5.88l-6.39,40.23H45.32l-.73-2.85c-1.76,1.23-5.67,3.16-9,3.16-6.8,0-8.37-7.23-7.13-14.51C29.72,190.73,32,184.74,39.64,184.74ZM37.3,207.39a17.84,17.84,0,0,0,8-1.93l2.31-14.63A21.84,21.84,0,0,0,40,189.7c-2.5,0-4.35,1.55-5.58,9C33.45,204.79,34.55,207.39,37.3,207.39Z"/><path class="cls-6" d="M59.36,185.15h4.82l.56,3.43c2.65-1.81,5.59-3.72,9.28-3.72a9.79,9.79,0,0,1,3.25.35L76.35,191a33.45,33.45,0,0,0-3.84-.2,12.25,12.25,0,0,0-8.57,3L61,212.36H55.06Z"/><path class="cls-6" d="M80.84,185.15h6l-4.31,27.21H76.54Zm.86-8a1.36,1.36,0,0,1,1.43-1.28h4.36c.77,0,1.06.56,1,1.28l-.59,3.9a1.28,1.28,0,0,1-1.36,1.18H82.13a1,1,0,0,1-1-1.18Z"/><path class="cls-6" d="M95.72,185.15l3.82,20.43,7.6-15.33a14.62,14.62,0,0,0,1.53-5.14H114a10,10,0,0,1-1,6.8l-10.57,20.45h-7.3l-5.63-27.21Z"/><path class="cls-6" d="M129.42,184.63c6.08,0,10.9,1.7,10.34,7.85-1,12-16.64,9.64-18.53,8.87-.83,5,.16,6.35,3.8,6.38a63.13,63.13,0,0,0,11.72-.8l-.69,4.3a41.58,41.58,0,0,1-13.69,1.49c-6.55-.2-8.5-5.38-6.66-15.32C117.3,189,119.43,184.67,129.42,184.63Zm4.29,8.47c.51-2.93-1.21-3.43-4.69-3.42-6.05,0-6.5,3.81-7.26,7.65C121.76,197.33,132.73,198.85,133.71,193.1Z"/><path class="cls-6" d="M145.34,185.15h4.81l.57,3.43c2.64-1.81,5.59-3.72,9.27-3.72a9.89,9.89,0,0,1,3.26.35l-.93,5.77a33.45,33.45,0,0,0-3.84-.2,12.25,12.25,0,0,0-8.57,3L147,212.36H141Z"/><path class="cls-6" d="M190.75,184.63c6.08,0,10.89,1.7,10.34,7.85-1,12-16.64,9.64-18.53,8.87-.83,5,.16,6.35,3.8,6.38a63.13,63.13,0,0,0,11.72-.8l-.7,4.3a41.55,41.55,0,0,1-13.69,1.49c-6.54-.2-8.5-5.38-6.65-15.32C178.63,189,180.76,184.67,190.75,184.63ZM195,193.1c.51-2.93-1.21-3.43-4.7-3.42-6,0-6.49,3.81-7.25,7.65C183.09,197.33,194.06,198.85,195,193.1Z"/><path class="cls-6" d="M216.11,184.63c3.8-.29,10.29.67,12.9,3.18l-3.59,24.51h-4.51l-.9-2.89a14.11,14.11,0,0,1-8.71,3.25c-5.5,0-9.49-3.54-7.39-15.18C206,186.29,211.51,185,216.11,184.63ZM213,207.44a12.08,12.08,0,0,0,7.53-2.53l2.21-14.64a15.45,15.45,0,0,0-6.68-.6c-2.68.52-5.1,1.24-6.35,9.16C208.77,204.69,209.48,207.44,213,207.44Z"/><path class="cls-6" d="M231.1,207.61h13.27a2.34,2.34,0,0,0,2.53-2.1l.32-1.89c.23-1.38-.12-2.16-1.87-2.16h-6.64c-4.82,0-7.48-2.27-6.67-7.45l.42-2.52c.69-4.34,2.92-6.77,8.2-6.77,4.29,0,11.75.32,13.91,1.18l-.62,3.95H241.26c-2.37,0-2.76,1.3-2.91,2.29l-.29,1.8c-.42,2.52,1,2.19,2.19,2.19H247c4.93,0,6.84,3.32,6.21,7.24l-.46,3.15c-.87,5.59-4.75,6.26-7.76,6.26-4.2,0-12.78-.43-14.55-1.29Z"/><path class="cls-6" d="M263.65,185.15,265.92,205c.29,2.19,2.65,2,2.93,2l8-16.8a15.5,15.5,0,0,0,1.3-5.14h5.37a10.66,10.66,0,0,1-.94,6.93l-9.7,20.34c-4.9,10.43-10.34,13.57-15,14.44v-4.2c4.42-2.56,6.84-6.52,8.74-10.21-2.93,0-5.93-1.52-6.54-6.46l-2.53-20.75Z"/></g></g></svg>