<svg width="144" height="124" viewBox="0 0 144 124" fill="none" xmlns="http://www.w3.org/2000/svg">
<path d="M141 92L72 121.5L3 92L15.5 53.5L45.5 35H67.5H68H76H77H98.5L128.5 54L141 92Z" fill="#1D1D1D"/>
<path d="M76 35H98.5L128.5 54L141 92L72 121.5L3 92L15.5 53.5L45.5 35H68M67.5 35H77" stroke="#F5F5F5" stroke-width="4"/>
<path d="M13.5 5L45.5 34L15.5 53L13.5 5Z" fill="#1D1D1D" stroke="#F5F5F5" stroke-width="4"/>
<path d="M130.5 6L98.5 35L128.5 54.5V54L130.5 6Z" fill="#1D1D1D" stroke="#F5F5F5" stroke-width="4"/>
<path d="M27.6 27.0526L22 23V32.5789L28.3 37L29 31.8421" stroke="#F5F5F5" stroke-width="2"/>
<path d="M118.5 56.5L128.5 88.5H77.5L118.5 56.5Z" fill="#F5F5F5"/>
<path d="M28.5 56.5L18.5 88.5H69.5L28.5 56.5Z" fill="#F5F5F5"/>
<path d="M47.5 83L50.5 75L52.5 83L50.5 89L47.5 83Z" fill="#1D1D1D" stroke="#1D1D1D"/>
<path d="M99.5 83L96.5 75L94.5 83L96.5 89L99.5 83Z" fill="#1D1D1D" stroke="#1D1D1D"/>
</svg>
